HIERARCHY
ROOT hips
{
  OFFSET 0 10.432787522119774 1.3615615910897314
  CHANNELS 6 Xposition Yposition Zposition Yrotation Xrotation Zrotation
  JOINT spine
  {
    OFFSET -7.042016674e-31 0.605849736412771 0
    CHANNELS 3 Yrotation Xrotation Zrotation
    JOINT chest
    {
      OFFSET 0 1.2699780403367527 0
      CHANNELS 3 Yrotation Xrotation Zrotation
      JOINT upperChest
      {
        OFFSET 0 1.217802795781373 0
        CHANNELS 3 Yrotation Xrotation Zrotation
        JOINT neck
        {
          OFFSET 0 1.524881793055447 0
          CHANNELS 3 Yrotation Xrotation Zrotation
          JOINT head
          {
            OFFSET 0 0.8197776686196176 0
            CHANNELS 3 Yrotation Xrotation Zrotation
            JOINT leftEye
            {
              OFFSET 0.27991711184325396 0.7377279215890094 0.1770057770610815
              CHANNELS 3 Yrotation Xrotation Zrotation
              End Site
              {
                OFFSET 0.27991711184325396 0.7377279215890094 0.1770057770610815
              }
            }
            JOINT rightEye
            {
              OFFSET -0.27991715118228666 0.7377278742074458 0.1770060973723161
              CHANNELS 3 Yrotation Xrotation Zrotation
              End Site
              {
                OFFSET -0.27991715118228666 0.7377278742074458 0.1770060973723161
              }
            }
          }
        }
        JOINT leftShoulder
        {
          OFFSET 0.4148696499235711 1.1670497283493415 0
          CHANNELS 3 Yrotation Xrotation Zrotation
          JOINT leftUpperArm
          {
            OFFSET 0.9737923520503171 0 0
            CHANNELS 3 Yrotation Xrotation Zrotation
            JOINT leftLowerArm
            {
              OFFSET 2.526933563002016 0 0
              CHANNELS 3 Yrotation Xrotation Zrotation
              JOINT leftHand
              {
                OFFSET 2.4263767061081287 0 0
                CHANNELS 3 Yrotation Xrotation Zrotation
                JOINT leftIndexProximal
                {
                  OFFSET 0.7243194303238094 0.08170604153373495 0.2036005707489045
                  CHANNELS 3 Yrotation Xrotation Zrotation
                  JOINT leftIndexIntermediate
                  {
                    OFFSET 0.365490110639793 -0.010566615565509085 -0.014147873305413783
                    CHANNELS 3 Yrotation Xrotation Zrotation
                    JOINT leftIndexDistal
                    {
                      OFFSET 0.22502693978020916 -0.007863122621388996 -0.007567729919505994
                      CHANNELS 3 Yrotation Xrotation Zrotation
                      End Site
                      {
                        OFFSET 0.22502693978020916 -0.007863122621388996 -0.007567729919505994
                      }
                    }
                  }
                }
                JOINT leftLittleProximal
                {
                  OFFSET 0.6720313867214986 0.0817059792423902 -0.3230034999786495
                  CHANNELS 3 Yrotation Xrotation Zrotation
                  JOINT leftLittleIntermediate
                  {
                    OFFSET 0.3458364459000005 5.4765410650858826e-8 2.495506794542024e-7
                    CHANNELS 3 Yrotation Xrotation Zrotation
                    JOINT leftLittleDistal
                    {
                      OFFSET 0.19925722030351722 0.003096736260194355 0.0038306323169590983
                      CHANNELS 3 Yrotation Xrotation Zrotation
                      End Site
                      {
                        OFFSET 0.19925722030351722 0.003096736260194355 0.0038306323169590983
                      }
                    }
                  }
                }
                JOINT leftMiddleProximal
                {
                  OFFSET 0.7300446999180792 0.08170730820222194 0.0226618663244387
                  CHANNELS 3 Yrotation Xrotation Zrotation
                  JOINT leftMiddleIntermediate
                  {
                    OFFSET 0.40758107610000327 -0.0000012383582372876845 3.721937498757377e-7
                    CHANNELS 3 Yrotation Xrotation Zrotation
                    JOINT leftMiddleDistal
                    {
                      OFFSET 0.2514495697999991 7.561061998728746e-8 -1.6055895105115958e-7
                      CHANNELS 3 Yrotation Xrotation Zrotation
                      End Site
                      {
                        OFFSET 0.2514495697999991 7.561061998728746e-8 -1.6055895105115958e-7
                      }
                    }
                  }
                }
                JOINT leftRingProximal
                {
                  OFFSET 0.7217264995692599 0.08170598771388815 -0.1504338786787948
                  CHANNELS 3 Yrotation Xrotation Zrotation
                  JOINT leftRingIntermediate
                  {
                    OFFSET 0.3780872700000014 6.409956210262635e-8 3.723059401883333e-7
                    CHANNELS 3 Yrotation Xrotation Zrotation
                    JOINT leftRingDistal
                    {
                      OFFSET 0.21812031524459563 -0.00271347557699686 -0.004991351593452126
                      CHANNELS 3 Yrotation Xrotation Zrotation
                      End Site
                      {
                        OFFSET 0.21812031524459563 -0.00271347557699686 -0.004991351593452126
                      }
                    }
                  }
                }
                JOINT leftThumbProximal
                {
                  OFFSET 0.10793670302222891 -0.165278914300383 -0.07775358168875651
                  CHANNELS 3 Yrotation Xrotation Zrotation
                  JOINT leftThumbIntermediate
                  {
                    OFFSET 0.40355763830204994 -0.017484092948475194 0.31777731504028983
                    CHANNELS 3 Yrotation Xrotation Zrotation
                    JOINT leftThumbDistal
                    {
                      OFFSET 0.2318770514136803 -0.018507879151339335 0.21396002480314588
                      CHANNELS 3 Yrotation Xrotation Zrotation
                      End Site
                      {
                        OFFSET 0.2318770514136803 -0.018507879151339335 0.21396002480314588
                      }
                    }
                  }
                }
              }
            }
          }
        }
        JOINT rightShoulder
        {
          OFFSET -0.4148696499235712 1.1670497283493415 0
          CHANNELS 3 Yrotation Xrotation Zrotation
          JOINT rightUpperArm
          {
            OFFSET -0.9737923520503168 0 0
            CHANNELS 3 Yrotation Xrotation Zrotation
            JOINT rightLowerArm
            {
              OFFSET -2.5269335630020175 0 0
              CHANNELS 3 Yrotation Xrotation Zrotation
              JOINT rightHand
              {
                OFFSET -2.4263767061081274 0 0
                CHANNELS 3 Yrotation Xrotation Zrotation
                JOINT rightIndexProximal
                {
                  OFFSET -0.7243194303238094 0.08170604153373495 0.2036005707489045
                  CHANNELS 3 Yrotation Xrotation Zrotation
                  JOINT rightIndexIntermediate
                  {
                    OFFSET -0.365490110639793 -0.010566615565509085 -0.014147873305413783
                    CHANNELS 3 Yrotation Xrotation Zrotation
                    JOINT rightIndexDistal
                    {
                      OFFSET -0.22502693978020916 -0.007863122621388996 -0.007567729919505994
                      CHANNELS 3 Yrotation Xrotation Zrotation
                      End Site
                      {
                        OFFSET -0.22502693978020916 -0.007863122621388996 -0.007567729919505994
                      }
                    }
                  }
                }
                JOINT rightLittleProximal
                {
                  OFFSET -0.6720313867214986 0.0817059792423902 -0.3230034999786495
                  CHANNELS 3 Yrotation Xrotation Zrotation
                  JOINT rightLittleIntermediate
                  {
                    OFFSET -0.3458364459000005 5.4765410650858826e-8 2.495506794542024e-7
                    CHANNELS 3 Yrotation Xrotation Zrotation
                    JOINT rightLittleDistal
                    {
                      OFFSET -0.19925722030351722 0.003096736260194355 0.0038306323169590983
                      CHANNELS 3 Yrotation Xrotation Zrotation
                      End Site
                      {
                        OFFSET -0.19925722030351722 0.003096736260194355 0.0038306323169590983
                      }
                    }
                  }
                }
                JOINT rightMiddleProximal
                {
                  OFFSET -0.7300446999180792 0.08170730820222194 0.0226618663244387
                  CHANNELS 3 Yrotation Xrotation Zrotation
                  JOINT rightMiddleIntermediate
                  {
                    OFFSET -0.40758107610000327 -0.0000012383582372876845 3.721937498757377e-7
                    CHANNELS 3 Yrotation Xrotation Zrotation
                    JOINT rightMiddleDistal
                    {
                      OFFSET -0.2514495697999991 7.561061998728746e-8 -1.6055895105115958e-7
                      CHANNELS 3 Yrotation Xrotation Zrotation
                      End Site
                      {
                        OFFSET -0.2514495697999991 7.561061998728746e-8 -1.6055895105115958e-7
                      }
                    }
                  }
                }
                JOINT rightRingProximal
                {
                  OFFSET -0.7217264995692599 0.08170598771388815 -0.1504338786787948
                  CHANNELS 3 Yrotation Xrotation Zrotation
                  JOINT rightRingIntermediate
                  {
                    OFFSET -0.3780872700000014 6.409956210262635e-8 3.723059401883333e-7
                    CHANNELS 3 Yrotation Xrotation Zrotation
                    JOINT rightRingDistal
                    {
                      OFFSET -0.21812031524459563 -0.00271347557699686 -0.004991351593452126
                      CHANNELS 3 Yrotation Xrotation Zrotation
                      End Site
                      {
                        OFFSET -0.21812031524459563 -0.00271347557699686 -0.004991351593452126
                      }
                    }
                  }
                }
                JOINT rightThumbProximal
                {
                  OFFSET -0.10793670302222891 -0.165278914300383 -0.07775358168875651
                  CHANNELS 3 Yrotation Xrotation Zrotation
                  JOINT rightThumbIntermediate
                  {
                    OFFSET -0.40355763830204994 -0.017484092948475194 0.31777731504028983
                    CHANNELS 3 Yrotation Xrotation Zrotation
                    JOINT rightThumbDistal
                    {
                      OFFSET -0.2318770514136803 -0.018507879151339335 0.21396002480314588
                      CHANNELS 3 Yrotation Xrotation Zrotation
                      End Site
                      {
                        OFFSET -0.2318770514136803 -0.018507879151339335 0.21396002480314588
                      }
                    }
                  }
                }
              }
            }
          }
        }
      }
    }
  }
  JOINT leftUpperLeg
  {
    OFFSET 0.8486251400000001 -0.44215692923454897 0
    CHANNELS 3 Yrotation Xrotation Zrotation
    JOINT leftLowerLeg
    {
      OFFSET 0 -4.1014783730019015 0
      CHANNELS 3 Yrotation Xrotation Zrotation
      JOINT leftFoot
      {
        OFFSET -0.0002543926242001143 -4.7729227580453255 0.007402839656626761
        CHANNELS 3 Yrotation Xrotation Zrotation
        JOINT leftToes
        {
          OFFSET 0 -0.7027876860119923 1.2062921852216233
          CHANNELS 3 Yrotation Xrotation Zrotation
          End Site
          {
            OFFSET 0 -0.7027876860119923 1.2062921852216233
          }
        }
      }
    }
  }
  JOINT rightUpperLeg
  {
    OFFSET -0.8486251400000001 -0.44215692923454897 0
    CHANNELS 3 Yrotation Xrotation Zrotation
    JOINT rightLowerLeg
    {
      OFFSET 0 -4.1014783730019015 0
      CHANNELS 3 Yrotation Xrotation Zrotation
      JOINT rightFoot
      {
        OFFSET 0.0002543926242001143 -4.7729227580453255 0.007402839656626761
        CHANNELS 3 Yrotation Xrotation Zrotation
        JOINT rightToes
        {
          OFFSET 0 -0.7027876860119923 1.2062921852216233
          CHANNELS 3 Yrotation Xrotation Zrotation
          End Site
          {
            OFFSET 0 -0.7027876860119923 1.2062921852216233
          }
        }
      }
    }
  }
}
MOTION
Frames: 4
Frame Time: 0.03333333333333333
-0.12726545333862305 -0.3653646552984853 0.02680966816842556 -6.243816675183474 -3.446314814320855 -4.507537535573089 -1.4696171871158814 -2.189775808592166 5.266171569661189 -3.8833351585295786 0.2753392186939676 13.255666241139506 0 0 0 0.39386577592066596 5.205425888808717 -2.70911137371151 4.108478897485877 2.488029397323194 -10.147712036602499 0 0 0 0 0 0 2.4362539833049137 0.6115504112953792 -9.252673585320375 -16.455645817157976 8.092648638057176 -76.95010621111564 -13.202413841391678 -1.1481140255206004 0.30413851546348736 -11.47374871789159 0.6834897619688396 -3.4303303784560524 0.05039841919114883 -0.11237241199955995 -7.3907555202304085 2.685624963493224 0.6155519576409682 -25.815582384793128 1.7265936857279782 0.24668529032739248 -16.262007075369205 4.0253653021684475 0.8881667751578209 -20.64444659025088 -0.973583333428231 0.8406036078253135 -30.56256113617567 4.935748567222569 2.467071221024442 -53.09543501359306 1.2204178877360397 0.12103599133338443 -11.51101610543145 2.9576449238908227 0.7555768385889833 -28.655964647641166 2.3471418851437194 0.46418446696967913 -22.372450325642333 1.2430282846207907 0.06550701123946447 -15.88051870531656 4.053898042198315 1.519159128436109 -41.07405082984661 3.3669189449670243 1.0001622032195177 -33.081724355074776 12.807950700215944 2.3334566343171894 9.419524502079923 20.415874178545618 0.5386054344154488 9.690989524353006 19.121725606777197 3.9830462952279015 4.028003899169669 5.457579825020705 0.5066485842796615 12.688680996879148 2.0107566489595485 14.568783984435393 52.68433820644291 11.153628142268738 -0.9750543263001398 -0.23972726463094746 -1.3129137883808364 -11.200975088663117 2.954448662489419 -0.16847247404917579 -0.10915632070528299 8.350030542113624 -2.160859112737948 0.38653102103707715 20.280957034323293 -1.1289436870417089 0.10309262977247224 10.435347241772032 -2.243144764062672 0.36815962814454095 24.460302881947502 -3.274174319475543 0.9289416217055948 31.671550562160817 -5.224896374746601 2.828946417677808 56.841654031606794 -1.0326349935648067 0.08519674285355985 9.629587671781255 -3.3026051780635 0.9465828413969043 31.978723387386506 -2.065078260310332 0.36042145437092804 19.37780927623956 -2.5086106720360957 0.554000313419021 18.813988308270048 -3.8487510830694154 1.3294919338125952 38.10175261451938 -3.8382312545989694 1.330336436712489 38.03655839696739 -8.288904607308554 -3.7036721451920225 -6.0744519187978465 -23.1443107712557 8.672823595929081 -11.911999641579188 -12.785699189395581 5.852129784280445 -4.199654984070831 14.81111726160101 -21.200375372264872 11.312541247932657 -4.3917165032687215 16.12940028883036 2.5464302390027833 0.02059813887195987 5.495965226588421 -9.527944124937536 0.000006491248435139744 2.255753428836964 -0.000009109927060650183 -8.572211058261018 -2.7641324800002245 7.827509632317312 -8.099267160069594 22.406870594518743 -1.780553106098305 0.3782012234180221 -16.056274307342502 -2.8878172980656935 -0.0000031803206882661974 -0.31593784413295073 4.1080503267084476e-8
-0.12718191742897034 -0.36516152266909074 0.027802448719739914 -6.229436482859511 -3.435891508812704 -4.505435422605935 -1.4686607206568136 -2.1972018234897543 5.26613858630302 -3.878091890135206 0.26248922347005876 13.253991291914978 0 0 0 0.3891575428623198 5.224750367508358 -2.711494751971418 4.088196741406011 2.563617197331323 -10.178506308851393 0 0 0 0 0 0 2.4219134519352408 0.6108143098112491 -9.24782417069836 -16.468407545293516 8.091998418180866 -76.98573813874589 -13.202306121346622 -1.1480976938208873 0.30414340744676943 -11.497384294142329 0.6101648713664879 -3.3376849825442187 0.05039841919114883 -0.11237241199955995 -7.3907555202304085 2.685624963493224 0.6155519576409682 -25.815582384793128 1.7265936857279782 0.24668529032739248 -16.262007075369205 4.0251023702816875 0.8879621650706564 -20.6417258508351 -0.974044577022207 0.8403494227354597 -30.557439253042126 4.9354064453555795 2.466635819860575 -53.09042727150731 1.2204178877360397 0.12103599133338443 -11.51101610543145 2.9576449238908227 0.7555768385889833 -28.655964647641166 2.3471418851437194 0.46418446696967913 -22.372450325642333 1.2429041223215227 0.06549945400373511 -15.879572296909357 4.053534405844596 1.518840879195019 -41.069678492640534 3.366523730726914 0.9998974930701348 -33.07735605120875 12.807950700215944 2.3334566343171894 9.419524502079923 20.415874178545618 0.5386054344154488 9.690989524353006 19.121725606777197 3.9830462952279015 4.028003899169669 5.467374026299754 0.5062116485483528 12.684583972155728 2.0706031529244515 14.614640505785392 52.70363719567746 11.137635763760754 -0.9737061294838195 -0.23925461681930538 -1.3253249534671747 -11.087573802988196 3.087069048565325 -0.16629150801039067 -0.10960236488737786 8.34724862879918 -2.161456391130293 0.3867408406878463 20.28678494761938 -1.1288595392414376 0.10307563431331969 10.43456367354434 -2.2444389789164725 0.3686873778901642 24.47165374941963 -3.2747617011502386 0.929293209230819 31.677811146319144 -5.229419141155018 2.835878777476375 56.9176209471746 -1.0321919401270365 0.08512816741173744 9.625625021404712 -3.303204695997935 0.9469612215014721 31.985201885819862 -2.0685095330738448 0.36162668652013236 19.41134445842175 -2.5105514342185136 0.5548497512437881 18.819043390690762 -3.849676600814818 1.3302276579761385 38.112611636649966 -3.8424624563405647 1.3336529628447635 38.0859205683682 -8.285863619903914 -3.7022057157075006 -6.078728832276764 -23.15134302977973 8.673384104562961 -11.907259281910475 -12.781794698002907 5.860377165127622 -4.199770654058301 14.819220067225176 -21.2085440909819 11.309249801705127 -4.408425780451406 16.129656251320252 2.526068495197444 0.022296543796563494 5.490095042989417 -9.515672816470904 -0.000005821983488228843 2.2700725611182064 0.0000029248409258558625 -8.57284241069477 -2.7614987285588577 7.821858862389661 -8.106220836617755 22.3930705345597 -1.7753813322268635 0.37856457147789696 -16.055666621546195 -2.886993831824291 -0.000010804388139797997 -0.3116709396168538 -0.000002421830231589096
-0.12701906263828278 -0.3647094810431142 0.029970934614539146 -6.202498631873592 -3.4164152046594407 -4.498592347336638 -1.4654418806174754 -2.212880179219393 5.256991213917871 -3.867625264674279 0.22814018026729807 13.23328659572211 0 0 0 0.38270693998645083 5.252235011970054 -2.7189464581798872 4.062100557247332 2.710476469282661 -10.254002895086002 0 0 0 0 0 0 2.4062271865473552 0.6093609445917197 -9.234385904630692 -16.48713475071271 8.101675937034049 -77.02120229768127 -13.202092395258088 -1.148088407168151 0.3040936925331534 -11.533179196017327 0.46093852723003903 -3.213340521953494 0.05039841919114883 -0.11237241199955995 -7.3907555202304085 2.685624963493224 0.6155519576409682 -25.815582384793128 1.7265936857279782 0.24668529032739248 -16.262007075369205 4.023121996896838 0.8864565681889437 -20.62039130504378 -0.9777309156893605 0.8381596853122601 -30.517761086485795 4.932837102413132 2.463188507333717 -53.05073596701033 1.2204178877360397 0.12103599133338443 -11.51101610543145 2.9576449238908227 0.7555768385889833 -28.655964647641166 2.3471418851437194 0.46418446696967913 -22.372450325642333 1.2421356426550798 0.0653072147358428 -15.872110559691375 4.050737220927469 1.5164314318314003 -41.03528405132822 3.3633899487364367 0.9978598660617711 -33.04292112452729 12.807950700215944 2.3334566343171894 9.419524502079923 20.415874178545618 0.5386054344154488 9.690989524353006 19.121725606777197 3.9830462952279015 4.028003899169669 5.501546419008641 0.5047675409461433 12.683435038949602 2.21841949686248 14.717370314708754 52.801633953845055 11.066241903236149 -0.9676311918339031 -0.23705965407676666 -1.3210304739377607 -10.890008016700905 3.314594124226345 -0.16256094629107543 -0.11039260722446124 8.342614407821975 -2.1625844839905195 0.38716797737594616 20.29789194733184 -1.1287311777363465 0.10305677789142123 10.433289839575766 -2.246934149652461 0.3696820715175336 24.493765196915362 -3.2758767903912713 0.9299931823132929 31.68988300880832 -5.233622741733678 2.8423228597860275 56.988222554470134 -1.0314271562560136 0.08499995448115209 9.618795647247016 -3.3043668791545486 0.9476709111235242 31.997720082827197 -2.0717035742586605 0.36277394110036565 19.442490149156143 -2.5139863093878225 0.5563814398222913 18.828861451670114 -3.851483952592986 1.3316403941659296 38.1336510821703 -3.846381055050551 1.336734001264901 38.13175331456521 -8.280209481415707 -3.699701497808695 -6.085890089584838 -23.164988015814657 8.674494760505622 -11.898098823557486 -12.774742595948327 5.8764036693670345 -4.20009588924307 14.83088186201302 -21.21822625633364 11.30213071137651 -4.434451661380784 16.127064646385424 2.4880192719728047 0.024057325291777464 5.479557333544897 -9.492548361741372 0.000006664365254657622 2.2984070639922343 -0.000002915357275620679 -8.579950088475544 -2.7527284317506795 7.808745315607411 -8.116864550461889 22.363905051974996 -1.7677139193519567 0.3788730153975634 -16.054852823004985 -2.883386214329115 6.4884383154517535e-9 -0.30466986776531046 8.537144107644279e-7
-0.1268330216407776 -0.36417160872866106 0.03239617869257927 -6.179229644682958 -3.3995318557149905 -4.4879547652622485 -1.4599260215547063 -2.226014240525697 5.23095284641558 -3.858992432177537 0.18512207411543696 13.18066550580097 0 0 0 0.3841448278559926 5.259250509731812 -2.7319041944941724 4.07325440288872 2.854213968034528 -10.35406522476502 0 0 0 0 0 0 2.416518614742123 0.6078495732525885 -9.210980618948074 -16.48875944825207 8.119794099255172 -77.02352362582371 -13.20204516061263 -1.1480713282666455 0.3040856869109502 -11.553089403786544 0.32611984167227515 -3.1456447215171743 0.05039841919114883 -0.11237241199955995 -7.3907555202304085 2.685624963493224 0.6155519576409682 -25.815582384793128 1.7265936857279782 0.24668529032739248 -16.262007075369205 4.0192445957013 0.8835229721657625 -20.5787348645887 -0.9849458524977405 0.833899488272579 -30.44021422946754 4.927814731655958 2.4565259217719264 -52.97333912920819 1.2204178877360397 0.12103599133338443 -11.51101610543145 2.9576449238908227 0.7555768385889833 -28.655964647641166 2.3471418851437194 0.46418446696967913 -22.372450325642333 1.2405930284279796 0.06501032142847851 -15.85747065061166 4.045251605114814 1.5116645367113597 -40.968157066580936 3.357337132817222 0.9939136617845511 -32.975755075995934 12.807950700215944 2.3334566343171894 9.419524502079923 20.415874178545618 0.5386054344154488 9.690989524353006 19.121725606777197 3.9830462952279015 4.028003899169669 5.557974653478057 0.5023515883856583 12.698157910387737 2.4040757596942597 14.824430096363601 53.022924252177546 10.930154614308607 -0.9560467326391818 -0.23302854652849103 -1.274485698556673 -10.78128897566057 3.452783403444632 -0.1756133618880214 -0.10766697661435122 8.358981327947857 -2.1616716515200003 0.38681589443753056 20.288923852413667 -1.1292169092968316 0.10314777830325428 10.437835339048133 -2.244297730644856 0.3685202215593635 24.475902551309257 -3.2749788013468355 0.9294421055976775 31.68017315991184 -5.228741467610819 2.8348331187714115 56.90624638659552 -1.0340927491761913 0.08545498965759707 9.642667568594314 -3.3034292407106887 0.9470962429028043 31.987618561161423 -2.0680091347357266 0.3614191887131106 19.406308314874067 -2.5046780332936587 0.5522428985595638 18.821845886033586 -3.850032702924189 1.3304995514507643 38.11670099245924 -3.8418408348265625 1.3331384248941753 38.07852772353833 -8.289195787855574 -3.709404419121474 -6.059745827171162 -23.15400774506492 8.673596562599656 -11.905514108636645 -12.79093797894179 5.865029807624061 -4.2021455319112375 14.848147680890287 -21.22392668554993 11.296863711122183 -4.456397784732348 16.128189804034974 2.439689231434679 0.02576212553742613 5.460139478877581 -9.462210536591682 0.000006316850084763591 2.3154173489655783 0.000003273990529311884 -8.586561786016235 -2.7397722643921685 7.797708643919324 -8.131776029892377 22.331498533101243 -1.7747357443788756 0.3776594330972358 -16.053989276225533 -2.871463220006736 0.000007604790799262078 -0.3007875447220717 -9.823216047477322e-8
